<mxfile host="app.diagrams.net" modified="2022-12-11T20:52:32.184Z" agent="5.0 (Windows NT 10.0; Win64; x64) AppleWebKit/537.36 (KHTML, like Gecko) Chrome/108.0.0.0 Safari/537.36" etag="JA4zmIVlFNxZV4pcIDYM" version="20.6.2" type="github">
  <diagram name="Page-1" id="c4acf3e9-155e-7222-9cf6-157b1a14988f">
    <mxGraphModel dx="869" dy="393" grid="1" gridSize="10" guides="1" tooltips="1" connect="1" arrows="1" fold="1" page="1" pageScale="1" pageWidth="850" pageHeight="1100" background="none" math="0" shadow="0">
      <root>
        <mxCell id="0" />
        <mxCell id="1" parent="0" />
        <mxCell id="aRqJsQ0WYy4CMYuSw8px-7" value="" style="shape=image;html=1;verticalAlign=top;verticalLabelPosition=bottom;labelBackgroundColor=#ffffff;imageAspect=0;aspect=fixed;image=https://cdn1.iconfinder.com/data/icons/user-pictures/100/male3-128.png" vertex="1" parent="1">
          <mxGeometry x="90" y="135" width="100" height="100" as="geometry" />
        </mxCell>
        <mxCell id="aRqJsQ0WYy4CMYuSw8px-12" value="" style="line;strokeWidth=2;html=1;" vertex="1" parent="1">
          <mxGeometry x="200" y="180" width="160" height="10" as="geometry" />
        </mxCell>
        <mxCell id="aRqJsQ0WYy4CMYuSw8px-13" value="&lt;b&gt;&lt;font style=&quot;font-size: 13px;&quot;&gt;USER&lt;/font&gt;&lt;/b&gt;" style="text;html=1;strokeColor=none;fillColor=none;align=center;verticalAlign=middle;whiteSpace=wrap;rounded=0;" vertex="1" parent="1">
          <mxGeometry x="110" y="240" width="60" height="30" as="geometry" />
        </mxCell>
        <mxCell id="aRqJsQ0WYy4CMYuSw8px-15" value="" style="ellipse;whiteSpace=wrap;html=1;fontSize=13;" vertex="1" parent="1">
          <mxGeometry x="365" y="145" width="135" height="85" as="geometry" />
        </mxCell>
        <mxCell id="aRqJsQ0WYy4CMYuSw8px-16" value="&lt;font style=&quot;font-size: 18px;&quot;&gt;&lt;b&gt;&lt;i&gt;Seller&lt;/i&gt;&lt;/b&gt;&lt;/font&gt;" style="text;html=1;strokeColor=none;fillColor=none;align=center;verticalAlign=middle;whiteSpace=wrap;rounded=0;fontSize=13;" vertex="1" parent="1">
          <mxGeometry x="402.5" y="172.5" width="60" height="30" as="geometry" />
        </mxCell>
        <mxCell id="aRqJsQ0WYy4CMYuSw8px-17" value="" style="ellipse;whiteSpace=wrap;html=1;fontSize=18;" vertex="1" parent="1">
          <mxGeometry x="375" y="280" width="125" height="90" as="geometry" />
        </mxCell>
        <mxCell id="aRqJsQ0WYy4CMYuSw8px-19" value="" style="line;strokeWidth=2;html=1;fontSize=18;rotation=25;" vertex="1" parent="1">
          <mxGeometry x="180.4" y="264.52" width="198.59" height="10" as="geometry" />
        </mxCell>
        <mxCell id="aRqJsQ0WYy4CMYuSw8px-20" value="&lt;b&gt;&lt;i&gt;Biller&lt;/i&gt;&lt;/b&gt;" style="text;html=1;strokeColor=none;fillColor=none;align=center;verticalAlign=middle;whiteSpace=wrap;rounded=0;fontSize=18;" vertex="1" parent="1">
          <mxGeometry x="407.5" y="310" width="60" height="30" as="geometry" />
        </mxCell>
        <mxCell id="aRqJsQ0WYy4CMYuSw8px-21" value="" style="endArrow=classic;html=1;rounded=0;fontSize=18;endFill=1;strokeColor=#000000;endSize=13;startSize=31;entryX=0;entryY=0.5;entryDx=0;entryDy=0;" edge="1" parent="1" target="aRqJsQ0WYy4CMYuSw8px-22">
          <mxGeometry width="50" height="50" relative="1" as="geometry">
            <mxPoint x="500" y="184.5" as="sourcePoint" />
            <mxPoint x="590" y="184.5" as="targetPoint" />
          </mxGeometry>
        </mxCell>
        <mxCell id="aRqJsQ0WYy4CMYuSw8px-22" value="" style="rounded=1;whiteSpace=wrap;html=1;fontFamily=Helvetica;fontSize=18;fontColor=default;" vertex="1" parent="1">
          <mxGeometry x="600" y="147.5" width="140" height="75" as="geometry" />
        </mxCell>
        <mxCell id="aRqJsQ0WYy4CMYuSw8px-23" value="Sales Report" style="text;html=1;strokeColor=none;fillColor=none;align=center;verticalAlign=middle;whiteSpace=wrap;rounded=0;fontFamily=Helvetica;fontSize=18;fontColor=default;" vertex="1" parent="1">
          <mxGeometry x="617.5" y="170" width="105" height="30" as="geometry" />
        </mxCell>
        <mxCell id="aRqJsQ0WYy4CMYuSw8px-24" value="" style="endArrow=classic;html=1;rounded=0;labelBackgroundColor=default;strokeColor=#000000;fontFamily=Helvetica;fontSize=18;fontColor=default;startSize=31;endSize=13;shape=connector;entryX=0.45;entryY=0;entryDx=0;entryDy=0;entryPerimeter=0;exitX=0.456;exitY=1;exitDx=0;exitDy=0;exitPerimeter=0;" edge="1" parent="1" source="aRqJsQ0WYy4CMYuSw8px-17">
          <mxGeometry width="50" height="50" relative="1" as="geometry">
            <mxPoint x="430" y="390" as="sourcePoint" />
            <mxPoint x="432" y="450" as="targetPoint" />
            <Array as="points">
              <mxPoint x="432" y="450" />
            </Array>
          </mxGeometry>
        </mxCell>
        <mxCell id="aRqJsQ0WYy4CMYuSw8px-44" value="MainMenu" style="swimlane;fontStyle=1;align=center;verticalAlign=top;childLayout=stackLayout;horizontal=1;startSize=26;horizontalStack=0;resizeParent=1;resizeParentMax=0;resizeLast=0;collapsible=1;marginBottom=0;fontFamily=Helvetica;fontSize=18;fontColor=default;" vertex="1" parent="1">
          <mxGeometry x="350" y="450" width="160" height="86" as="geometry" />
        </mxCell>
        <mxCell id="aRqJsQ0WYy4CMYuSw8px-49" value="+ __init__" style="text;strokeColor=none;fillColor=none;align=left;verticalAlign=top;spacingLeft=4;spacingRight=4;overflow=hidden;rotatable=0;points=[[0,0.5],[1,0.5]];portConstraint=eastwest;fontFamily=Helvetica;fontSize=17;fontColor=default;" vertex="1" parent="aRqJsQ0WYy4CMYuSw8px-44">
          <mxGeometry y="26" width="160" height="26" as="geometry" />
        </mxCell>
        <mxCell id="aRqJsQ0WYy4CMYuSw8px-46" value="" style="line;strokeWidth=1;fillColor=none;align=left;verticalAlign=middle;spacingTop=-1;spacingLeft=3;spacingRight=3;rotatable=0;labelPosition=right;points=[];portConstraint=eastwest;strokeColor=inherit;fontFamily=Helvetica;fontSize=18;fontColor=default;" vertex="1" parent="aRqJsQ0WYy4CMYuSw8px-44">
          <mxGeometry y="52" width="160" height="8" as="geometry" />
        </mxCell>
        <mxCell id="aRqJsQ0WYy4CMYuSw8px-47" value="+ displayMainMenu" style="text;strokeColor=none;fillColor=none;align=left;verticalAlign=top;spacingLeft=4;spacingRight=4;overflow=hidden;rotatable=0;points=[[0,0.5],[1,0.5]];portConstraint=eastwest;fontFamily=Helvetica;fontSize=17;fontColor=default;" vertex="1" parent="aRqJsQ0WYy4CMYuSw8px-44">
          <mxGeometry y="60" width="160" height="26" as="geometry" />
        </mxCell>
        <mxCell id="aRqJsQ0WYy4CMYuSw8px-52" value="File " style="swimlane;fontStyle=1;childLayout=stackLayout;horizontal=1;startSize=26;fillColor=none;horizontalStack=0;resizeParent=1;resizeParentMax=0;resizeLast=0;collapsible=1;marginBottom=0;fontFamily=Helvetica;fontSize=17;fontColor=default;" vertex="1" parent="1">
          <mxGeometry x="110" y="450" width="140" height="104" as="geometry" />
        </mxCell>
        <mxCell id="aRqJsQ0WYy4CMYuSw8px-53" value="+ food    " style="text;strokeColor=none;fillColor=none;align=left;verticalAlign=top;spacingLeft=4;spacingRight=4;overflow=hidden;rotatable=0;points=[[0,0.5],[1,0.5]];portConstraint=eastwest;fontFamily=Helvetica;fontSize=17;fontColor=default;" vertex="1" parent="aRqJsQ0WYy4CMYuSw8px-52">
          <mxGeometry y="26" width="140" height="26" as="geometry" />
        </mxCell>
        <mxCell id="aRqJsQ0WYy4CMYuSw8px-54" value="+ drink" style="text;strokeColor=none;fillColor=none;align=left;verticalAlign=top;spacingLeft=4;spacingRight=4;overflow=hidden;rotatable=0;points=[[0,0.5],[1,0.5]];portConstraint=eastwest;fontFamily=Helvetica;fontSize=17;fontColor=default;" vertex="1" parent="aRqJsQ0WYy4CMYuSw8px-52">
          <mxGeometry y="52" width="140" height="26" as="geometry" />
        </mxCell>
        <mxCell id="aRqJsQ0WYy4CMYuSw8px-55" value="+ service" style="text;strokeColor=none;fillColor=none;align=left;verticalAlign=top;spacingLeft=4;spacingRight=4;overflow=hidden;rotatable=0;points=[[0,0.5],[1,0.5]];portConstraint=eastwest;fontFamily=Helvetica;fontSize=17;fontColor=default;" vertex="1" parent="aRqJsQ0WYy4CMYuSw8px-52">
          <mxGeometry y="78" width="140" height="26" as="geometry" />
        </mxCell>
        <mxCell id="aRqJsQ0WYy4CMYuSw8px-56" value="" style="endArrow=classic;html=1;rounded=0;labelBackgroundColor=default;strokeColor=#000000;fontFamily=Helvetica;fontSize=17;fontColor=default;startSize=31;endSize=13;shape=connector;exitX=0;exitY=0.25;exitDx=0;exitDy=0;entryX=1.021;entryY=0.163;entryDx=0;entryDy=0;entryPerimeter=0;" edge="1" parent="1" source="aRqJsQ0WYy4CMYuSw8px-44" target="aRqJsQ0WYy4CMYuSw8px-52">
          <mxGeometry width="50" height="50" relative="1" as="geometry">
            <mxPoint x="270" y="517" as="sourcePoint" />
            <mxPoint x="265" y="452" as="targetPoint" />
            <Array as="points" />
          </mxGeometry>
        </mxCell>
        <mxCell id="aRqJsQ0WYy4CMYuSw8px-65" value="Order Menu" style="swimlane;fontStyle=1;align=center;verticalAlign=top;childLayout=stackLayout;horizontal=1;startSize=26;horizontalStack=0;resizeParent=1;resizeParentMax=0;resizeLast=0;collapsible=1;marginBottom=0;fontFamily=Helvetica;fontSize=17;fontColor=default;" vertex="1" parent="1">
          <mxGeometry x="600" y="450" width="180" height="80" as="geometry" />
        </mxCell>
        <mxCell id="aRqJsQ0WYy4CMYuSw8px-68" value="+ processOrder(self,&#xa; _input_)" style="text;strokeColor=none;fillColor=none;align=left;verticalAlign=top;spacingLeft=4;spacingRight=4;overflow=hidden;rotatable=0;points=[[0,0.5],[1,0.5]];portConstraint=eastwest;fontFamily=Helvetica;fontSize=17;fontColor=#000000;" vertex="1" parent="aRqJsQ0WYy4CMYuSw8px-65">
          <mxGeometry y="26" width="180" height="46" as="geometry" />
        </mxCell>
        <mxCell id="aRqJsQ0WYy4CMYuSw8px-67" value="" style="line;strokeWidth=1;fillColor=none;align=left;verticalAlign=middle;spacingTop=-1;spacingLeft=3;spacingRight=3;rotatable=0;labelPosition=right;points=[];portConstraint=eastwest;strokeColor=inherit;fontFamily=Helvetica;fontSize=17;fontColor=default;" vertex="1" parent="aRqJsQ0WYy4CMYuSw8px-65">
          <mxGeometry y="72" width="180" height="8" as="geometry" />
        </mxCell>
        <mxCell id="aRqJsQ0WYy4CMYuSw8px-69" value="" style="endArrow=classic;html=1;rounded=0;labelBackgroundColor=default;strokeColor=#000000;fontFamily=Helvetica;fontSize=17;fontColor=#000000;startSize=31;endSize=13;shape=connector;exitX=1;exitY=0.151;exitDx=0;exitDy=0;exitPerimeter=0;entryX=0;entryY=0.162;entryDx=0;entryDy=0;entryPerimeter=0;" edge="1" parent="1" source="aRqJsQ0WYy4CMYuSw8px-44" target="aRqJsQ0WYy4CMYuSw8px-65">
          <mxGeometry width="50" height="50" relative="1" as="geometry">
            <mxPoint x="590" y="510" as="sourcePoint" />
            <mxPoint x="560" y="463" as="targetPoint" />
            <Array as="points" />
          </mxGeometry>
        </mxCell>
        <mxCell id="aRqJsQ0WYy4CMYuSw8px-70" value="Report" style="swimlane;fontStyle=1;childLayout=stackLayout;horizontal=1;startSize=26;fillColor=none;horizontalStack=0;resizeParent=1;resizeParentMax=0;resizeLast=0;collapsible=1;marginBottom=0;fontFamily=Helvetica;fontSize=17;fontColor=#000000;" vertex="1" parent="1">
          <mxGeometry x="180.4" y="610" width="140" height="104" as="geometry" />
        </mxCell>
        <mxCell id="aRqJsQ0WYy4CMYuSw8px-71" value="+saveReport(self)" style="text;strokeColor=none;fillColor=none;align=left;verticalAlign=top;spacingLeft=4;spacingRight=4;overflow=hidden;rotatable=0;points=[[0,0.5],[1,0.5]];portConstraint=eastwest;fontFamily=Helvetica;fontSize=14;fontColor=#000000;" vertex="1" parent="aRqJsQ0WYy4CMYuSw8px-70">
          <mxGeometry y="26" width="140" height="26" as="geometry" />
        </mxCell>
        <mxCell id="aRqJsQ0WYy4CMYuSw8px-72" value="+displayReport(self)" style="text;strokeColor=none;fillColor=none;align=left;verticalAlign=top;spacingLeft=4;spacingRight=4;overflow=hidden;rotatable=0;points=[[0,0.5],[1,0.5]];portConstraint=eastwest;fontFamily=Helvetica;fontSize=13;fontColor=#000000;" vertex="1" parent="aRqJsQ0WYy4CMYuSw8px-70">
          <mxGeometry y="52" width="140" height="26" as="geometry" />
        </mxCell>
        <mxCell id="aRqJsQ0WYy4CMYuSw8px-73" value="+save(self)" style="text;strokeColor=none;fillColor=none;align=left;verticalAlign=top;spacingLeft=4;spacingRight=4;overflow=hidden;rotatable=0;points=[[0,0.5],[1,0.5]];portConstraint=eastwest;fontFamily=Helvetica;fontSize=14;fontColor=#000000;" vertex="1" parent="aRqJsQ0WYy4CMYuSw8px-70">
          <mxGeometry y="78" width="140" height="26" as="geometry" />
        </mxCell>
        <mxCell id="aRqJsQ0WYy4CMYuSw8px-74" value="" style="endArrow=classic;html=1;rounded=0;labelBackgroundColor=default;strokeColor=#000000;fontFamily=Helvetica;fontSize=14;fontColor=#000000;startSize=31;endSize=13;shape=connector;entryX=0.75;entryY=0;entryDx=0;entryDy=0;exitX=0;exitY=0.25;exitDx=0;exitDy=0;" edge="1" parent="1" source="aRqJsQ0WYy4CMYuSw8px-44" target="aRqJsQ0WYy4CMYuSw8px-70">
          <mxGeometry width="50" height="50" relative="1" as="geometry">
            <mxPoint x="340" y="530" as="sourcePoint" />
            <mxPoint x="490" y="560" as="targetPoint" />
          </mxGeometry>
        </mxCell>
        <mxCell id="aRqJsQ0WYy4CMYuSw8px-75" value="Payment" style="swimlane;fontStyle=1;childLayout=stackLayout;horizontal=1;startSize=26;fillColor=none;horizontalStack=0;resizeParent=1;resizeParentMax=0;resizeLast=0;collapsible=1;marginBottom=0;fontFamily=Helvetica;fontSize=17;fontColor=#000000;" vertex="1" parent="1">
          <mxGeometry x="540" y="610" width="140" height="104" as="geometry" />
        </mxCell>
        <mxCell id="aRqJsQ0WYy4CMYuSw8px-76" value="+displayPayment(self)" style="text;strokeColor=none;fillColor=none;align=left;verticalAlign=top;spacingLeft=4;spacingRight=4;overflow=hidden;rotatable=0;points=[[0,0.5],[1,0.5]];portConstraint=eastwest;fontFamily=Helvetica;fontSize=14;fontColor=#000000;" vertex="1" parent="aRqJsQ0WYy4CMYuSw8px-75">
          <mxGeometry y="26" width="140" height="26" as="geometry" />
        </mxCell>
        <mxCell id="aRqJsQ0WYy4CMYuSw8px-77" value="+processPayment(self)" style="text;strokeColor=none;fillColor=none;align=left;verticalAlign=top;spacingLeft=4;spacingRight=4;overflow=hidden;rotatable=0;points=[[0,0.5],[1,0.5]];portConstraint=eastwest;fontFamily=Helvetica;fontSize=14;fontColor=#000000;" vertex="1" parent="aRqJsQ0WYy4CMYuSw8px-75">
          <mxGeometry y="52" width="140" height="26" as="geometry" />
        </mxCell>
        <mxCell id="aRqJsQ0WYy4CMYuSw8px-78" value="+ field: type" style="text;strokeColor=none;fillColor=none;align=left;verticalAlign=top;spacingLeft=4;spacingRight=4;overflow=hidden;rotatable=0;points=[[0,0.5],[1,0.5]];portConstraint=eastwest;fontFamily=Helvetica;fontSize=14;fontColor=#000000;" vertex="1" parent="aRqJsQ0WYy4CMYuSw8px-75">
          <mxGeometry y="78" width="140" height="26" as="geometry" />
        </mxCell>
        <mxCell id="aRqJsQ0WYy4CMYuSw8px-79" value="" style="endArrow=classic;html=1;rounded=0;labelBackgroundColor=default;strokeColor=#000000;fontFamily=Helvetica;fontSize=17;fontColor=#000000;startSize=31;endSize=13;shape=connector;exitX=1;exitY=0.25;exitDx=0;exitDy=0;entryX=0.336;entryY=-0.038;entryDx=0;entryDy=0;entryPerimeter=0;" edge="1" parent="1" source="aRqJsQ0WYy4CMYuSw8px-44" target="aRqJsQ0WYy4CMYuSw8px-75">
          <mxGeometry width="50" height="50" relative="1" as="geometry">
            <mxPoint x="530" y="595" as="sourcePoint" />
            <mxPoint x="580" y="545" as="targetPoint" />
          </mxGeometry>
        </mxCell>
      </root>
    </mxGraphModel>
  </diagram>
</mxfile>
